<?xml version="1.0" encoding="UTF-8" standalone="no"?>
<!DOCTYPE svg PUBLIC "-//W3C//DTD SVG 1.1//EN" "http://www.w3.org/Graphics/SVG/1.1/DTD/svg11.dtd">
<svg width="100%" height="100%" viewBox="0 0 268 102" version="1.1" xmlns="http://www.w3.org/2000/svg" xmlns:xlink="http://www.w3.org/1999/xlink" xml:space="preserve" xmlns:serif="http://www.serif.com/" style="fill-rule:evenodd;clip-rule:evenodd;stroke-linejoin:round;stroke-miterlimit:1.41421;">
    <g transform="matrix(1,0,0,1,-23.4212,-25.9841)">
        <g transform="matrix(1,0,0,1,-162.097,-180.997)">
            <g transform="matrix(0.707107,-0.721459,-0.707107,-0.721459,290.439,335.363)">
                <path d="M67.91,5.008C60.679,5.008 53.879,7.824 48.762,12.941C46.516,15.188 44.703,17.773 43.368,20.625C42.078,23.383 41.274,26.32 40.969,29.359C40.375,35.27 41.746,41.25 44.836,46.273L5.215,85.894C4.942,86.168 4.942,86.617 5.215,86.89L13.11,94.785C13.383,95.058 13.832,95.058 14.106,94.785L21.504,87.39L28.899,94.785C29.172,95.058 29.618,95.058 29.895,94.785L37.789,86.89C38.063,86.617 38.063,86.168 37.789,85.894L30.395,78.5L37.293,71.602L44.688,78.996C44.961,79.269 45.41,79.269 45.684,78.996L53.578,71.102C53.852,70.828 53.852,70.379 53.578,70.105L46.184,62.711L53.735,55.16C58.758,58.25 64.743,59.625 70.649,59.027C73.688,58.719 76.629,57.914 79.383,56.629C82.235,55.293 84.821,53.484 87.067,51.234C92.18,46.117 95,39.316 95,32.082C95,24.848 92.184,18.047 87.067,12.934C81.946,7.825 75.145,5.009 67.911,5.009L67.91,5.008ZM78.101,42.278C72.484,47.899 63.339,47.899 57.722,42.278C52.105,36.661 52.105,27.52 57.726,21.899C63.343,16.282 72.488,16.282 78.105,21.899C83.718,27.52 83.718,36.661 78.101,42.278L78.101,42.278Z" style="fill-rule:nonzero;"/>
            </g>
            <g transform="matrix(1.28267,0,0,1.28267,-35.8881,-80.8344)">
                <text x="164.406px" y="310.5px" style="font-family:'3270Medium', 'IBM 3270', monospace;font-weight:500;font-size:144px;fill:rgb(0,107,194);">C</text>
            </g>
            <g transform="matrix(1,0,0,1.0203,-46.809,-76.0396)">
                <text x="388.302px" y="355.368px" style="font-family:'3270Medium', 'IBM 3270', monospace;font-weight:500;font-size:72px;fill:rgb(0,107,194);">DEZ</text>
            </g>
        </g>
    </g>
</svg>
